<svg xmlns="http://www.w3.org/2000/svg" viewBox="0 0 120 120" width="120" height="120"><rect x="0" y="0" width="120" height="120" rx="27" fill="#0F4C38"/><g transform="translate(60 62) scale(0.86) translate(-59 -59)"><path d="M57,76 C56.5,88 55.5,98 54.5,108 L65.5,108 C64.5,98 63.5,88 63,76 Z" fill="#C9A06A"/><g stroke="#0F4C38" stroke-width="2.4" stroke-linejoin="round"><path d="M60,44 L60,10 A34,34 0 0 1 92.34,33.49 Z" fill="#F2EDE1"/><path d="M60,44 L92.34,33.49 A34,34 0 0 1 80,71.49 Z" fill="#EBA23C"/><path d="M60,44 L80,71.49 A34,34 0 0 1 40,71.49 Z" fill="#CFC4AE"/><path d="M60,44 L40,71.49 A34,34 0 0 1 27.66,33.49 Z" fill="#E4DBCB"/><path d="M60,44 L27.66,33.49 A34,34 0 0 1 60,10 Z" fill="#F2EDE1"/></g></g></svg>